<?xml version="1.0" encoding="UTF-8" standalone="no"?><!DOCTYPE svg PUBLIC "-//W3C//DTD SVG 1.1//EN" "http://www.w3.org/Graphics/SVG/1.1/DTD/svg11.dtd"><svg width="100%" height="100%" viewBox="0 0 165 50" version="1.1" xmlns="http://www.w3.org/2000/svg" xmlns:xlink="http://www.w3.org/1999/xlink" xml:space="preserve" xmlns:serif="http://www.serif.com/" style="fill-rule:evenodd;clip-rule:evenodd;stroke-linejoin:round;stroke-miterlimit:2;"><rect id="Artboard1" x="0" y="0" width="164.859" height="50" style="fill:none;"/><g id="Artboard11" serif:id="Artboard1"><g><g><g><path d="M15.677,6.199c-9.271,0 -15.677,6.353 -15.677,16.093c0,6.093 2.969,9.219 3.802,10c1.51,1.146 2.917,-2.292 2.917,-3.229c0,-0.521 -0.208,-0.885 -0.782,-0.73c-0.103,-0.155 -1.978,-1.77 -1.978,-6.354c0,-6.354 3.385,-11.875 11.77,-11.875c6.094,0 8.49,4.949 8.49,8.907c0,8.75 -7.135,12.708 -10.677,13.125l0,-17.031c0,-1.251 -1.198,-2.292 -2.917,-2.292c-0.729,0 -1.354,0.365 -1.354,0.885c0,0.365 0.209,0.677 0.209,1.667l0,27.24c0,0.781 1.405,1.51 2.604,1.51c0.781,0 1.458,-0.313 1.458,-1.198l0,-6.874c7.656,-1.459 14.687,-8.073 14.687,-17.136c0,-7.396 -4.947,-12.708 -12.552,-12.708Z" style="fill:#ee287c;fill-rule:nonzero;"/><path d="M85.769,18.177c-3.542,0.156 -5.916,0.208 -9.093,0.208l0,-9.114c0,-1.25 -1.093,-2.292 -2.812,-2.292c-0.73,0 -1.667,0.208 -1.667,0.573c0,0.365 0.521,0.469 0.521,1.979l0,8.802c-2.813,-0.051 -4.688,-0.156 -4.688,-0.156c-1.511,0 -0.573,3.49 1.093,3.49c0,0 1.303,0.104 3.595,0.104l0,14.468c-0.535,2.105 -1.475,4.439 -3.218,4.439c-1.355,0 -1.355,-1.927 -1.355,-2.397l0,-10.781c0,-2.396 -0.833,-5.261 -4.323,-5.261c-2.552,0 -4.427,2.241 -5.833,5.158l0,-2.344c0,-1.251 -1.094,-2.292 -2.813,-2.292c-0.729,0 -1.355,0.365 -1.355,0.885c0,0.365 0.209,0.677 0.209,1.667l0,9.038c-0.085,0.198 -0.163,0.421 -0.218,0.701c-0.468,2.293 -1.406,5.626 -3.49,5.626c-1.354,0 -1.354,-1.927 -1.354,-2.397l0,-13.228c0,-1.251 -1.093,-2.292 -2.812,-2.292c-0.73,0 -1.355,0.365 -1.355,0.885c0,0.365 0.209,0.677 0.209,1.667l0,9.168c-0.064,0.169 -0.12,0.354 -0.161,0.571c-0.469,2.293 -1.406,5.626 -3.49,5.626c-1.25,0 -1.771,-1.25 -1.771,-2.397l0,-8.593c0,-1.25 -1.094,-2.291 -2.812,-2.291c-0.729,0 -1.354,0.364 -1.354,0.884c0,0.366 0.208,0.678 0.208,1.667l0,8.021c-0.573,1.459 -1.511,2.709 -2.917,2.709c-1.823,0 -2.969,-1.563 -2.969,-4.272c0,-7.499 4.636,-10.885 8.594,-10.885c0.521,0 1.042,0.104 1.511,0.104c0.521,0 0.677,-0.312 0.677,-1.197c0,-1.355 -0.99,-2.189 -2.397,-2.189c-6.354,0 -12.395,5.314 -12.395,14.012c0,4.427 2.136,7.864 6.198,7.864c1.98,0 3.437,-0.938 4.479,-2.135c0.781,1.25 2.188,2.135 4.011,2.135c2.199,0 3.819,-1.134 5.005,-2.692c0.645,1.582 2.017,2.692 3.958,2.692c1.996,0 3.504,-0.933 4.648,-2.271c0.011,1.907 1.46,2.271 2.497,2.271c1.51,0 1.459,-1.25 1.459,-2.24l0,-7.604c0.364,-4.114 3.593,-8.593 5.104,-8.593c0.989,0 1.093,1.354 1.093,2.969l0,10.573c0,2.655 1.615,4.895 4.376,4.895c2.072,0 3.627,-1.009 4.793,-2.429c0.798,1.691 2.291,2.429 4.154,2.429c4.479,0 6.563,-4.687 7.448,-8.125c0.052,-0.209 0.052,-0.312 0.052,-0.364c0,-0.99 -0.989,-2.136 -1.822,-2.136c-0.521,0 -1.042,0.469 -1.25,1.562c-0.47,2.293 -1.407,5.626 -3.49,5.626c-1.094,0 -1.771,-0.73 -1.771,-2.397l0,-16.51c2.761,0 4.561,0 8.728,-0.104c1.354,-0.053 1.823,-5.052 0.365,-3.49Z" style="fill:#ee287c;fill-rule:nonzero;"/><path d="M120.779,16.823c0,-7.396 -5.157,-11.823 -13.021,-11.823c-9.271,0 -15.677,6.354 -15.677,16.094c0,6.094 2.969,9.219 3.803,10c1.51,1.146 2.916,-2.292 2.916,-3.229c0,-0.52 -0.208,-0.885 -0.781,-0.729c-0.104,-0.156 -1.979,-1.771 -1.979,-6.354c0,-6.354 3.385,-11.876 11.77,-11.876c6.407,0 8.959,4.063 8.959,8.021c0,7.553 -5.99,9.168 -8.437,9.168c-1.563,0 -0.677,3.905 0.26,3.905c3.28,0 6.874,1.407 6.874,6.094c0,3.021 -2.188,5.313 -5.104,5.313c-3.072,0 -4.739,-1.979 -4.739,-6.979l0,-19.323c0,-1.251 -1.198,-2.292 -2.917,-2.292c-0.729,0 -1.354,0.365 -1.354,0.885c0,0.365 0.209,0.677 0.209,1.667l0,18.906c0,6.407 2.03,10.729 8.854,10.729c5.156,0 9.114,-3.801 9.114,-9.01c0,-4.479 -2.448,-7.083 -5.469,-7.969c3.803,-2.031 6.719,-5.521 6.719,-11.198Z" style="fill:#ee287c;fill-rule:nonzero;"/><path d="M132.816,35.313c-1.199,-1.563 -1.98,-3.749 -1.98,-6.094c0,-1.614 0.313,-2.448 0.886,-2.448c1.094,0 1.251,2.604 1.251,6.146c0,0.782 -0.054,1.563 -0.157,2.396Zm30.22,-1.823c-0.52,0 -1.042,0.469 -1.249,1.562c-0.469,2.293 -1.355,5.834 -3.438,5.834c-1.927,0 -3.333,-2.605 -5.313,-6.823l5.887,-8.385c0.156,-0.209 0.207,-0.47 0.207,-0.782c0,-1.198 -1.146,-2.708 -2.186,-2.708c-0.574,0 -0.99,0.468 -1.459,1.406c-0.886,1.667 -2.292,4.167 -4.063,6.875c-1.302,-2.761 -2.344,-4.791 -3.594,-6.823c-0.677,-1.094 -1.927,-1.407 -2.761,-1.407c-2.187,0 -3.072,0.678 -3.072,2.501c0,2.657 -0.834,8.126 -1.355,10.052c-0.007,0.03 -0.007,0.059 -0.013,0.089c-0.495,1.646 -1.672,2.932 -3.592,2.932c-0.365,0 -0.678,0 -1.042,-0.104c0.521,-1.771 0.729,-3.698 0.729,-5.625c0,-5.052 -1.979,-8.75 -4.427,-8.75c-2.813,0 -4.219,2.812 -4.219,6.093c0,3.751 1.303,7.188 3.75,9.271c-0.677,1.199 -1.615,1.98 -3.074,1.98c-2.03,0 -3.749,-2.188 -3.749,-6.563c0,-5.156 1.562,-7.083 2.396,-8.334c1.353,-0.885 0.313,-3.645 -1.042,-3.645c-1.145,0 -5.312,4.635 -5.312,12.292c0,5.208 2.343,9.687 7.604,9.687c2.968,0 4.948,-1.51 6.251,-3.75c0.78,0.26 1.614,0.365 2.551,0.365c3.507,0 5.633,-2.299 6.281,-5.074c0.726,-2.586 1.447,-6.712 1.544,-8.833c1.407,2.396 2.605,4.741 3.698,7.24c-1.458,2.083 -3.073,4.167 -4.687,6.042c-1.667,1.927 -2.24,1.615 -2.24,2.292c0,0.989 1.51,1.718 2.709,1.718c0.936,0 1.613,-0.416 2.343,-1.563l3.491,-4.947c2.238,4.739 4.166,6.51 7.291,6.51c4.218,0 6.041,-4.687 6.927,-8.125c0.051,-0.209 0.051,-0.312 0.051,-0.364c0,-0.99 -0.989,-2.136 -1.823,-2.136Z" style="fill:#ee287c;fill-rule:nonzero;"/><path d="M47.77,17.605c1.824,0 3.177,-1.458 3.177,-3.177c0,-1.824 -1.353,-3.179 -3.177,-3.179c-1.719,0 -3.124,1.355 -3.124,3.179c0,1.719 1.405,3.177 3.124,3.177Z" style="fill:#ee287c;fill-rule:nonzero;"/></g></g></g></g></svg>