<?xml version="1.0" encoding="UTF-8" standalone="no"?><!DOCTYPE svg PUBLIC "-//W3C//DTD SVG 1.1//EN" "http://www.w3.org/Graphics/SVG/1.1/DTD/svg11.dtd"><svg width="100%" height="100%" viewBox="0 0 512 512" version="1.1" xmlns="http://www.w3.org/2000/svg" xmlns:xlink="http://www.w3.org/1999/xlink" xml:space="preserve" xmlns:serif="http://www.serif.com/" style="fill-rule:evenodd;clip-rule:evenodd;stroke-linejoin:round;stroke-miterlimit:2;"><path d="M256.55,8c-140.03,0 -248.55,102.34 -248.55,240.57c0,72.3 29.71,134.78 78.07,177.94c8.35,7.51 6.63,11.86 8.05,58.23c0.367,10.663 9.239,19.235 19.908,19.235c2.744,0 5.458,-0.567 7.972,-1.665c52.91,-23.3 53.59,-25.14 62.56,-22.7c153.29,42.19 319.44,-55.91 319.44,-231.04c0,-138.23 -107.41,-240.57 -247.45,-240.57Zm149.24,185.13l-73,115.57c-6.847,10.794 -18.774,17.353 -31.557,17.353c-8.055,0 -15.898,-2.605 -22.353,-7.423l-58.08,-43.47c-5.318,-3.988 -12.682,-3.988 -18,0l-78.37,59.44c-10.46,7.93 -24.16,-4.6 -17.11,-15.67l73,-115.57c6.844,-10.796 18.771,-17.357 31.554,-17.357c8.057,0 15.901,2.606 22.356,7.427l58.06,43.46c5.318,3.988 12.682,3.988 18,0l78.41,-59.38c10.44,-7.98 24.14,4.54 17.09,15.62Z" style="fill:#26b9d9;fill-rule:nonzero;"/></svg>