<?xml version="1.0" encoding="UTF-8" standalone="no"?>
<!DOCTYPE svg PUBLIC "-//W3C//DTD SVG 1.1//EN" "http://www.w3.org/Graphics/SVG/1.1/DTD/svg11.dtd">
<svg width="100%" height="100%" viewBox="0 0 57 57" version="1.1" xmlns="http://www.w3.org/2000/svg" xmlns:xlink="http://www.w3.org/1999/xlink" xml:space="preserve" xmlns:serif="http://www.serif.com/" style="fill-rule:evenodd;clip-rule:evenodd;stroke-linejoin:round;stroke-miterlimit:2;">
    <g transform="matrix(1,0,0,1,-7378.46,-749.337)">
        <g id="Artboard4" transform="matrix(0.925709,0,0,0.930352,613.762,-131.436)">
            <rect x="7307.59" y="946.709" width="60.8" height="60.8" style="fill:none;"/>
            <g transform="matrix(1.08025,0,0,1.07486,5929.26,137.903)">
                <g transform="matrix(0.525087,0.525087,-0.525087,0.525087,900.236,-185.485)">
                    <path d="M1278.79,509.53L1278.88,509.444L1278.96,509.359L1279.06,509.276L1279.15,509.193L1279.24,509.112L1279.34,509.031L1279.43,508.951L1279.53,508.873L1279.62,508.796L1279.72,508.719L1279.82,508.645L1279.92,508.572L1280.02,508.499L1280.12,508.427L1280.23,508.357L1280.33,508.289L1280.43,508.22L1280.54,508.153L1280.64,508.089L1280.75,508.025L1280.86,507.961L1280.97,507.9L1281.08,507.84L1281.19,507.78L1281.3,507.722L1281.41,507.667L1281.52,507.613L1281.63,507.558L1281.75,507.503L1281.87,507.453L1281.98,507.405L1282.09,507.357L1282.21,507.308L1282.33,507.263L1282.45,507.22L1282.57,507.175L1282.69,507.134L1282.81,507.095L1282.93,507.057L1283.05,507.018L1283.17,506.983L1283.29,506.95L1283.42,506.917L1283.55,506.885L1283.67,506.854L1283.8,506.827L1283.92,506.802L1284.04,506.776L1284.17,506.752L1284.31,506.73L1284.43,506.71L1284.56,506.691L1284.69,506.673L1284.82,506.658L1284.94,506.644L1285.08,506.632L1285.21,506.621L1285.34,506.611L1285.47,506.604L1285.6,506.599L1285.73,506.594L1285.87,506.591L1286,506.591L1323.25,506.591L1323.38,506.592L1323.5,506.594L1323.63,506.598L1323.77,506.604L1323.9,506.612L1324.03,506.621L1324.17,506.632L1324.29,506.644L1324.42,506.658L1324.55,506.674L1324.68,506.691L1324.81,506.71L1324.93,506.73L1325.06,506.752L1325.19,506.776L1325.32,506.802L1325.44,506.828L1325.56,506.854L1325.69,506.884L1325.82,506.916L1325.94,506.95L1326.07,506.985L1326.19,507.019L1326.3,507.054L1326.43,507.094L1326.55,507.135L1326.67,507.177L1326.79,507.218L1326.91,507.263L1327.03,507.311L1327.14,507.355L1327.26,507.405L1327.37,507.452L1327.49,507.504L1327.6,507.558L1327.72,507.613L1327.83,507.666L1327.94,507.723L1328.06,507.783L1328.16,507.839L1328.27,507.901L1328.38,507.959L1328.49,508.023L1328.6,508.09L1328.7,508.151L1328.81,508.219L1328.91,508.289L1329.02,508.36L1329.12,508.427L1329.21,508.494L1329.32,508.574L1329.42,508.645L1329.52,508.721L1329.62,508.8L1329.71,508.873L1329.81,508.953L1329.9,509.028L1330,509.111L1330.09,509.195L1330.18,509.273L1330.27,509.359L1330.37,509.447L1330.45,509.528L1330.54,509.617L1330.63,509.708L1330.71,509.792L1330.8,509.884L1330.88,509.978L1330.96,510.065L1331.05,510.161L1331.13,510.258L1331.2,510.347L1331.29,510.446L1331.44,510.638L1331.51,510.74L1331.58,510.834L1331.66,510.946L1331.73,511.042L1331.8,511.139L1331.87,511.245L1331.94,511.353L1332.01,511.461L1332.07,511.561L1332.13,511.671L1332.2,511.782L1332.26,511.885L1332.32,511.997L1332.37,512.102L1332.43,512.215L1332.49,512.33L1332.54,512.437L1332.6,512.553L1332.65,512.67L1332.71,512.789L1332.75,512.898L1332.8,513.018L1332.85,513.129L1332.89,513.249L1332.94,513.371L1332.98,513.484L1333.02,513.607L1333.06,513.731L1333.1,513.855L1333.14,513.971L1333.17,514.088L1333.21,514.214L1333.24,514.34L1333.27,514.467L1333.3,514.596L1333.33,514.715L1333.36,514.835L1333.38,514.965L1333.4,515.094L1333.43,515.225L1333.45,515.348L1333.47,515.478L1333.48,515.61L1333.5,515.734L1333.51,515.867L1333.53,515.992L1333.54,516.125L1333.55,516.259L1333.55,516.394L1333.56,516.528L1333.56,516.655L1333.57,516.783L1333.57,516.909L1333.57,554.162L1333.57,554.292L1333.56,554.427L1333.56,554.555L1333.55,554.684L1333.55,554.817L1333.54,554.952L1333.53,555.08L1333.51,555.212L1333.5,555.34L1333.48,555.468L1333.47,555.599L1333.45,555.725L1333.43,555.852L1333.4,555.984L1333.38,556.115L1333.36,556.24L1333.33,556.359L1333.3,556.483L1333.27,556.612L1333.24,556.741L1333.21,556.864L1333.17,556.981L1333.14,557.104L1333.1,557.231L1333.06,557.351L1333.02,557.466L1332.98,557.587L1332.94,557.71L1332.89,557.825L1332.85,557.943L1332.8,558.065L1332.75,558.178L1332.7,558.291L1332.65,558.406L1332.6,558.524L1332.55,558.638L1332.49,558.75L1332.43,558.859L1332.38,558.971L1332.32,559.083L1332.26,559.189L1332.2,559.299L1332.13,559.409L1332.07,559.514L1332.01,559.618L1331.94,559.725L1331.87,559.831L1331.8,559.934L1331.73,560.035L1331.66,560.137L1331.59,560.238L1331.51,560.337L1331.44,560.437L1331.36,560.534L1331.28,560.632L1331.21,560.727L1331.13,560.822L1331.05,560.916L1330.96,561.009L1330.88,561.102L1330.8,561.193L1330.71,561.283L1330.63,561.371L1330.54,561.46L1330.45,561.548L1330.36,561.632L1330.27,561.717L1330.18,561.801L1330.09,561.885L1330,561.966L1329.9,562.046L1329.81,562.126L1329.71,562.204L1329.62,562.281L1329.52,562.357L1329.42,562.431L1329.32,562.506L1329.22,562.579L1329.12,562.65L1329.01,562.719L1328.91,562.788L1328.81,562.857L1328.7,562.924L1328.59,562.989L1328.49,563.051L1328.38,563.115L1328.27,563.178L1328.16,563.236L1328.05,563.295L1327.94,563.354L1327.83,563.412L1327.72,563.466L1327.61,563.519L1327.49,563.573L1327.38,563.622L1327.26,563.673L1327.14,563.721L1327.03,563.767L1326.9,563.815L1326.79,563.859L1326.67,563.9L1326.55,563.942L1326.43,563.984L1326.31,564.021L1326.19,564.057L1326.07,564.093L1325.94,564.129L1325.82,564.161L1325.69,564.192L1325.57,564.221L1325.44,564.249L1325.31,564.277L1325.19,564.301L1325.07,564.325L1324.93,564.347L1324.81,564.367L1324.68,564.386L1324.55,564.403L1324.42,564.419L1324.29,564.433L1324.16,564.445L1324.03,564.456L1323.9,564.465L1323.76,564.473L1323.64,564.478L1323.51,564.483L1323.37,564.485L1323.24,564.486L1285.99,564.486L1285.87,564.485L1285.74,564.483L1285.6,564.478L1285.47,564.473L1285.34,564.465L1285.2,564.456L1285.07,564.445L1284.95,564.433L1284.82,564.419L1284.69,564.404L1284.55,564.385L1284.43,564.366L1284.31,564.347L1284.17,564.325L1284.05,564.301L1283.92,564.276L1283.8,564.25L1283.67,564.221L1283.55,564.192L1283.42,564.16L1283.29,564.127L1283.18,564.094L1283.05,564.058L1282.93,564.02L1282.81,563.983L1282.69,563.942L1282.57,563.9L1282.45,563.859L1282.34,563.817L1282.21,563.767L1282.09,563.718L1281.98,563.672L1281.87,563.625L1281.75,563.573L1281.63,563.519L1281.52,563.464L1281.41,563.411L1281.3,563.358L1281.18,563.294L1281.07,563.233L1280.96,563.176L1280.86,563.118L1280.75,563.054L1280.64,562.987L1280.54,562.926L1280.43,562.858L1280.33,562.788L1280.22,562.717L1280.12,562.65L1280.03,562.583L1279.91,562.502L1279.82,562.432L1279.73,562.362L1279.62,562.278L1279.53,562.204L1279.43,562.124L1279.33,562.042L1279.24,561.966L1279.15,561.882L1279.06,561.804L1278.96,561.718L1278.87,561.63L1278.79,561.549L1278.7,561.46L1278.61,561.369L1278.53,561.285L1278.44,561.193L1278.35,561.099L1278.28,561.012L1278.19,560.916L1278.12,560.827L1278.03,560.73L1277.95,560.631L1277.88,560.54L1277.8,560.43L1277.73,560.337L1277.65,560.243L1277.57,560.131L1277.51,560.034L1277.44,559.938L1277.37,559.832L1277.3,559.724L1277.23,559.616L1277.17,559.516L1277.1,559.406L1277.04,559.295L1276.98,559.192L1276.92,559.089L1276.86,558.976L1276.8,558.853L1276.75,558.747L1276.69,558.64L1276.64,558.524L1276.58,558.406L1276.53,558.288L1276.49,558.179L1276.44,558.068L1276.39,557.949L1276.34,557.819L1276.3,557.705L1276.26,557.593L1276.21,557.47L1276.17,557.347L1276.14,557.23L1276.1,557.107L1276.06,556.98L1276.03,556.863L1276,556.736L1275.96,556.61L1275.94,556.49L1275.91,556.362L1275.88,556.233L1275.86,556.112L1275.83,555.983L1275.81,555.853L1275.79,555.729L1275.77,555.607L1275.75,555.467L1275.74,555.334L1275.73,555.21L1275.71,555.085L1275.7,554.951L1275.69,554.818L1275.68,554.684L1275.68,554.556L1275.67,554.423L1275.67,554.287L1275.67,554.168L1275.67,516.916L1275.67,516.793L1275.67,516.651L1275.68,516.514L1275.68,516.393L1275.69,516.259L1275.7,516.125L1275.71,515.998L1275.73,515.864L1275.74,515.736L1275.75,515.61L1275.77,515.478L1275.79,515.35L1275.81,515.224L1275.83,515.094L1275.86,514.969L1275.88,514.843L1275.91,514.713L1275.94,514.589L1275.97,514.464L1276,514.341L1276.03,514.219L1276.06,514.09L1276.1,513.968L1276.14,513.852L1276.17,513.731L1276.21,513.607L1276.26,513.486L1276.3,513.37L1276.34,513.251L1276.39,513.131L1276.44,513.016L1276.49,512.899L1276.54,512.783L1276.58,512.672L1276.64,512.553L1276.69,512.44L1276.75,512.331L1276.8,512.215L1276.86,512.103L1276.92,511.995L1276.98,511.886L1277.04,511.777L1277.11,511.669L1277.17,511.562L1277.23,511.458L1277.3,511.352L1277.37,511.247L1277.44,511.144L1277.51,511.042L1277.58,510.941L1277.65,510.839L1277.73,510.738L1277.8,510.641L1277.88,510.543L1277.95,510.445L1278.03,510.35L1278.11,510.254L1278.19,510.159L1278.27,510.067L1278.36,509.975L1278.44,509.885L1278.52,509.794L1278.61,509.705L1278.7,509.617L1278.79,509.53ZM1280.29,511.346L1280.23,511.415L1280.16,511.485L1280.09,511.555L1280.03,511.626L1279.97,511.698L1279.9,511.771L1279.84,511.845L1279.78,511.919L1279.72,511.994L1279.66,512.07L1279.61,512.146L1279.55,512.223L1279.49,512.301L1279.44,512.38L1279.38,512.459L1279.33,512.539L1279.28,512.62L1279.23,512.701L1279.18,512.783L1279.13,512.865L1279.08,512.949L1279.03,513.033L1278.98,513.117L1278.94,513.202L1278.89,513.288L1278.85,513.374L1278.81,513.461L1278.77,513.549L1278.73,513.637L1278.69,513.725L1278.65,513.814L1278.61,513.904L1278.57,513.995L1278.54,514.085L1278.51,514.177L1278.47,514.269L1278.44,514.361L1278.41,514.454L1278.38,514.547L1278.35,514.641L1278.32,514.736L1278.3,514.831L1278.27,514.926L1278.25,515.022L1278.23,515.118L1278.2,515.215L1278.18,515.312L1278.16,515.41L1278.14,515.508L1278.13,515.606L1278.11,515.705L1278.1,515.804L1278.08,515.904L1278.07,516.004L1278.06,516.104L1278.05,516.205L1278.04,516.306L1278.04,516.407L1278.03,516.509L1278.03,516.611L1278.02,516.713L1278.02,516.816L1278.02,516.919L1278.02,554.158L1278.02,554.261L1278.02,554.363L1278.03,554.466L1278.03,554.568L1278.04,554.67L1278.04,554.771L1278.05,554.872L1278.06,554.973L1278.07,555.073L1278.08,555.173L1278.1,555.273L1278.11,555.372L1278.13,555.471L1278.14,555.569L1278.16,555.667L1278.18,555.765L1278.2,555.862L1278.23,555.959L1278.25,556.055L1278.27,556.151L1278.3,556.246L1278.32,556.341L1278.35,556.435L1278.38,556.529L1278.41,556.623L1278.44,556.716L1278.47,556.808L1278.51,556.9L1278.54,556.991L1278.57,557.082L1278.61,557.173L1278.65,557.262L1278.69,557.352L1278.73,557.44L1278.77,557.528L1278.81,557.616L1278.85,557.703L1278.89,557.789L1278.94,557.875L1278.98,557.96L1279.03,558.044L1279.08,558.128L1279.13,558.211L1279.18,558.294L1279.23,558.376L1279.28,558.457L1279.33,558.538L1279.38,558.618L1279.44,558.697L1279.49,558.776L1279.55,558.854L1279.61,558.931L1279.66,559.007L1279.72,559.083L1279.78,559.158L1279.84,559.232L1279.9,559.306L1279.97,559.378L1280.03,559.451L1280.09,559.522L1280.16,559.592L1280.23,559.662L1280.29,559.731L1280.36,559.799L1280.43,559.866L1280.5,559.933L1280.57,559.998L1280.64,560.063L1280.71,560.127L1280.78,560.19L1280.85,560.253L1280.92,560.314L1281,560.375L1281.07,560.434L1281.15,560.493L1281.23,560.551L1281.3,560.608L1281.38,560.664L1281.46,560.719L1281.54,560.774L1281.62,560.827L1281.7,560.879L1281.78,560.931L1281.86,560.981L1281.95,561.031L1282.03,561.079L1282.11,561.127L1282.2,561.174L1282.28,561.219L1282.37,561.264L1282.45,561.307L1282.54,561.35L1282.63,561.391L1282.72,561.432L1282.81,561.471L1282.89,561.51L1282.99,561.547L1283.08,561.583L1283.17,561.619L1283.26,561.653L1283.35,561.686L1283.44,561.718L1283.54,561.749L1283.63,561.778L1283.72,561.807L1283.82,561.834L1283.91,561.861L1284.01,561.886L1284.1,561.91L1284.2,561.933L1284.3,561.954L1284.39,561.975L1284.49,561.994L1284.59,562.013L1284.69,562.029L1284.79,562.045L1284.88,562.06L1284.98,562.073L1285.08,562.085L1285.18,562.096L1285.29,562.106L1285.39,562.114L1285.49,562.121L1285.59,562.127L1285.69,562.131L1285.79,562.135L1285.9,562.137L1286,562.137L1323.24,562.137L1323.34,562.137L1323.44,562.135L1323.55,562.131L1323.65,562.127L1323.75,562.121L1323.85,562.114L1323.95,562.106L1324.05,562.096L1324.15,562.085L1324.25,562.073L1324.35,562.06L1324.45,562.045L1324.55,562.029L1324.65,562.013L1324.75,561.994L1324.85,561.975L1324.94,561.954L1325.04,561.933L1325.14,561.91L1325.23,561.886L1325.33,561.861L1325.42,561.834L1325.52,561.807L1325.61,561.778L1325.7,561.749L1325.8,561.718L1325.89,561.686L1325.98,561.653L1326.07,561.619L1326.16,561.583L1326.25,561.547L1326.34,561.51L1326.43,561.471L1326.52,561.432L1326.61,561.391L1326.7,561.35L1326.78,561.307L1326.87,561.264L1326.95,561.219L1327.04,561.174L1327.13,561.127L1327.21,561.079L1327.29,561.031L1327.37,560.981L1327.46,560.931L1327.54,560.879L1327.62,560.827L1327.7,560.774L1327.78,560.719L1327.86,560.664L1327.93,560.608L1328.01,560.551L1328.09,560.493L1328.16,560.434L1328.24,560.375L1328.31,560.314L1328.39,560.253L1328.46,560.19L1328.53,560.127L1328.6,560.063L1328.67,559.998L1328.74,559.933L1328.81,559.866L1328.88,559.799L1328.95,559.731L1329.01,559.662L1329.08,559.592L1329.14,559.522L1329.21,559.451L1329.27,559.378L1329.33,559.306L1329.39,559.232L1329.45,559.158L1329.52,559.083L1329.57,559.007L1329.63,558.931L1329.69,558.854L1329.75,558.776L1329.8,558.697L1329.85,558.618L1329.91,558.538L1329.96,558.457L1330.01,558.376L1330.06,558.294L1330.11,558.211L1330.16,558.128L1330.21,558.044L1330.25,557.96L1330.3,557.875L1330.34,557.789L1330.39,557.703L1330.43,557.616L1330.47,557.528L1330.51,557.44L1330.55,557.352L1330.59,557.262L1330.63,557.173L1330.66,557.082L1330.7,556.991L1330.73,556.9L1330.77,556.808L1330.8,556.716L1330.83,556.623L1330.86,556.529L1330.89,556.435L1330.91,556.341L1330.94,556.246L1330.97,556.151L1330.99,556.055L1331.01,555.959L1331.04,555.862L1331.06,555.765L1331.08,555.667L1331.09,555.569L1331.11,555.471L1331.13,555.372L1331.14,555.273L1331.15,555.173L1331.17,555.073L1331.18,554.973L1331.19,554.872L1331.19,554.771L1331.2,554.67L1331.21,554.568L1331.21,554.466L1331.21,554.363L1331.22,554.261L1331.22,554.158L1331.22,516.919L1331.22,516.816L1331.21,516.713L1331.21,516.611L1331.21,516.509L1331.2,516.407L1331.19,516.306L1331.19,516.205L1331.18,516.104L1331.17,516.004L1331.15,515.904L1331.14,515.804L1331.13,515.705L1331.11,515.606L1331.09,515.508L1331.08,515.41L1331.06,515.312L1331.04,515.215L1331.01,515.118L1330.99,515.022L1330.97,514.926L1330.94,514.831L1330.91,514.736L1330.89,514.641L1330.86,514.547L1330.83,514.454L1330.8,514.361L1330.77,514.269L1330.73,514.177L1330.7,514.085L1330.66,513.995L1330.63,513.904L1330.59,513.814L1330.55,513.725L1330.51,513.637L1330.47,513.549L1330.43,513.461L1330.39,513.374L1330.34,513.288L1330.3,513.202L1330.25,513.117L1330.21,513.033L1330.16,512.949L1330.11,512.865L1330.06,512.783L1330.01,512.701L1329.96,512.62L1329.91,512.539L1329.85,512.459L1329.8,512.38L1329.75,512.301L1329.69,512.223L1329.63,512.146L1329.57,512.07L1329.52,511.994L1329.45,511.919L1329.39,511.845L1329.33,511.771L1329.27,511.698L1329.21,511.626L1329.14,511.555L1329.08,511.485L1329.01,511.415L1328.95,511.346L1328.88,511.278L1328.81,511.211L1328.74,511.144L1328.67,511.078L1328.6,511.014L1328.53,510.95L1328.46,510.886L1328.39,510.824L1328.31,510.763L1328.24,510.702L1328.16,510.642L1328.09,510.584L1328.01,510.526L1327.93,510.469L1327.86,510.413L1327.78,510.357L1327.7,510.303L1327.62,510.25L1327.54,510.197L1327.46,510.146L1327.37,510.096L1327.29,510.046L1327.21,509.997L1327.13,509.95L1327.04,509.903L1326.95,509.858L1326.87,509.813L1326.78,509.77L1326.7,509.727L1326.61,509.685L1326.52,509.645L1326.43,509.606L1326.34,509.567L1326.25,509.53L1326.16,509.494L1326.07,509.458L1325.98,509.424L1325.89,509.391L1325.8,509.359L1325.7,509.328L1325.61,509.299L1325.52,509.27L1325.42,509.243L1325.33,509.216L1325.23,509.191L1325.14,509.167L1325.04,509.144L1324.94,509.122L1324.85,509.102L1324.75,509.083L1324.65,509.064L1324.55,509.047L1324.45,509.032L1324.35,509.017L1324.25,509.004L1324.15,508.992L1324.05,508.981L1323.95,508.971L1323.85,508.963L1323.75,508.956L1323.65,508.95L1323.55,508.945L1323.44,508.942L1323.34,508.94L1323.24,508.94L1286,508.94L1285.9,508.94L1285.79,508.942L1285.69,508.945L1285.59,508.95L1285.49,508.956L1285.39,508.963L1285.29,508.971L1285.18,508.981L1285.08,508.992L1284.98,509.004L1284.88,509.017L1284.79,509.032L1284.69,509.047L1284.59,509.064L1284.49,509.083L1284.39,509.102L1284.3,509.122L1284.2,509.144L1284.1,509.167L1284.01,509.191L1283.91,509.216L1283.82,509.243L1283.72,509.27L1283.63,509.299L1283.54,509.328L1283.44,509.359L1283.35,509.391L1283.26,509.424L1283.17,509.458L1283.08,509.494L1282.99,509.53L1282.89,509.567L1282.81,509.606L1282.72,509.645L1282.63,509.685L1282.54,509.727L1282.45,509.77L1282.37,509.813L1282.28,509.858L1282.2,509.903L1282.11,509.95L1282.03,509.997L1281.95,510.046L1281.86,510.096L1281.78,510.146L1281.7,510.197L1281.62,510.25L1281.54,510.303L1281.46,510.357L1281.38,510.413L1281.3,510.469L1281.23,510.526L1281.15,510.584L1281.07,510.642L1281,510.702L1280.92,510.763L1280.85,510.824L1280.78,510.886L1280.71,510.95L1280.64,511.014L1280.57,511.078L1280.5,511.144L1280.43,511.211L1280.36,511.278L1280.29,511.346Z" style="fill:rgb(238,40,124);"/>
                </g>
                <g transform="matrix(0.0648828,-0.00144023,-0.00144023,-0.0648828,1291.33,794.08)">
                    <path d="M401.129,311.475C399.992,308.049 392.758,303.002 379.432,296.346C375.822,294.248 370.678,291.397 364.022,287.78C357.36,284.163 351.313,280.83 345.892,277.784C340.46,274.739 335.371,271.789 330.616,268.938C329.856,268.367 327.477,266.704 323.48,263.938C319.479,261.18 316.105,259.133 313.34,257.798C310.581,256.471 307.867,255.803 305.202,255.803C301.396,255.803 296.642,258.517 290.934,263.938C285.226,269.366 279.99,275.262 275.234,281.644C270.477,288.023 265.432,293.919 260.108,299.344C254.776,304.771 250.395,307.482 246.973,307.482C245.255,307.482 243.113,307.003 240.546,306.058C237.98,305.107 236.028,304.292 234.688,303.635C233.36,302.964 231.081,301.636 227.843,299.631C224.599,297.632 222.795,296.537 222.415,296.346C196.34,281.877 173.977,265.317 155.322,246.67C136.673,228.012 120.111,205.651 105.646,179.573C105.456,179.192 104.359,177.383 102.362,174.149C100.362,170.912 99.029,168.631 98.363,167.295C97.697,165.964 96.888,164.012 95.938,161.443C94.988,158.874 94.511,156.734 94.511,155.019C94.511,151.595 97.224,147.215 102.649,141.885C108.073,136.558 113.975,131.512 120.349,126.757C126.728,122.002 132.624,116.766 138.05,111.058C143.474,105.347 146.186,100.591 146.186,96.785C146.186,94.122 145.52,91.407 144.189,88.648C142.857,85.883 140.811,82.509 138.05,78.51C135.288,74.513 133.623,72.136 133.051,71.371C130.199,66.616 127.252,61.525 124.203,56.1C121.154,50.676 117.826,44.63 114.208,37.969C110.593,31.311 107.74,26.17 105.644,22.554C98.986,9.233 93.943,1.997 90.516,0.859C89.183,0.288 87.183,0 84.521,0C79.379,0 72.671,0.95 64.392,2.856C56.11,4.759 49.593,6.755 44.834,8.852C35.317,12.847 25.23,24.457 14.57,43.678C4.863,61.566 0.01,79.271 0.01,96.78C0.01,101.915 0.343,106.911 1.009,111.769C1.675,116.622 2.865,122.095 4.58,128.187C6.292,134.277 7.673,138.801 8.717,141.747C9.762,144.695 11.713,149.976 14.569,157.592C17.421,165.206 19.136,169.867 19.707,171.58C26.368,190.234 34.267,206.887 43.402,221.544C58.432,245.906 78.943,271.083 104.923,297.065C130.904,323.045 156.076,343.555 180.44,358.591C195.095,367.725 211.754,375.623 230.405,382.289C232.119,382.857 236.78,384.568 244.391,387.43C252.005,390.284 257.288,392.235 260.236,393.282C263.185,394.33 267.71,395.712 273.795,397.427C279.893,399.142 285.361,400.332 290.214,401.003C295.07,401.66 300.067,401.999 305.203,401.999C322.711,401.999 340.417,397.143 358.308,387.437C377.527,376.781 389.134,366.692 393.131,357.168C395.233,352.414 397.224,345.895 399.127,337.613C401.036,329.335 401.984,322.628 401.984,317.487C401.99,314.814 401.703,312.819 401.129,311.475Z" style="fill:rgb(238,40,124);fill-rule:nonzero;"/>
                </g>
            </g>
        </g>
    </g>
</svg>
