<?xml version="1.0" encoding="UTF-8" standalone="no"?><!DOCTYPE svg PUBLIC "-//W3C//DTD SVG 1.1//EN" "http://www.w3.org/Graphics/SVG/1.1/DTD/svg11.dtd"><svg width="100%" height="100%" viewBox="0 0 57 57" version="1.1" xmlns="http://www.w3.org/2000/svg" xmlns:xlink="http://www.w3.org/1999/xlink" xml:space="preserve" xmlns:serif="http://www.serif.com/" style="fill-rule:evenodd;clip-rule:evenodd;stroke-linejoin:round;stroke-miterlimit:2;"><rect id="Artboard4" x="0" y="0" width="56.283" height="56.565" style="fill:none;"/><g><path d="M28.234,1.061l0.092,0.002l0.092,0.003l0.091,0.004l0.092,0.004l0.091,0.006l0.092,0.008l0.092,0.008l0.091,0.009l0.092,0.01l0.092,0.012l0.091,0.013l0.09,0.013l0.091,0.015l0.091,0.016l0.091,0.017l0.09,0.018l0.091,0.019l0.091,0.021l0.088,0.021l0.09,0.022l0.09,0.024l0.09,0.025l0.088,0.025l0.09,0.027l0.089,0.028l0.086,0.029l0.087,0.029l0.089,0.032l0.091,0.034l0.087,0.033l0.084,0.034l0.085,0.035l0.09,0.038l0.085,0.038l0.083,0.037l0.088,0.042l0.085,0.042l0.081,0.04l0.084,0.043l0.086,0.046l0.083,0.046l0.079,0.045l0.082,0.047l0.084,0.051l0.085,0.052l0.079,0.05l0.076,0.049l0.079,0.053l0.082,0.056l0.08,0.057l0.077,0.056l0.076,0.057l0.079,0.06l0.074,0.058l0.074,0.06l0.078,0.064l0.072,0.061l0.076,0.065l0.074,0.067l0.07,0.064l0.07,0.066l0.073,0.069l0.068,0.068l19.561,19.561l0.065,0.067l0.066,0.068l0.065,0.069l0.068,0.074l0.066,0.074l0.065,0.075l0.065,0.076l0.059,0.072l0.062,0.077l0.057,0.073l0.061,0.079l0.058,0.079l0.055,0.074l0.056,0.08l0.055,0.081l0.054,0.081l0.05,0.077l0.049,0.077l0.052,0.083l0.049,0.083l0.05,0.084l0.047,0.085l0.043,0.079l0.043,0.08l0.045,0.086l0.043,0.086l0.042,0.087l0.038,0.081l0.041,0.087l0.038,0.089l0.035,0.081l0.036,0.089l0.033,0.082l0.035,0.09l0.033,0.09l0.032,0.09l0.028,0.083l0.031,0.091l0.028,0.091l0.026,0.084l0.026,0.092l0.023,0.084l0.025,0.093l0.023,0.092l0.02,0.085l0.021,0.093l0.02,0.093l0.018,0.092l0.016,0.086l0.016,0.086l0.016,0.101l0.012,0.086l0.014,0.094l0.011,0.094l0.01,0.087l0.009,0.094l0.008,0.086l0.008,0.094l0.006,0.095l0.004,0.086l0.005,0.095l0.002,0.094l0.002,0.087l0.001,0.095l-0.001,0.094l-0.002,0.087l-0.002,0.094l-0.005,0.095l-0.004,0.087l-0.006,0.094l-0.008,0.094l-0.008,0.087l-0.009,0.094l-0.021,0.18l-0.014,0.094l-0.012,0.086l-0.016,0.101l-0.016,0.086l-0.016,0.086l-0.018,0.093l-0.02,0.093l-0.021,0.092l-0.02,0.086l-0.023,0.092l-0.025,0.092l-0.023,0.085l-0.026,0.091l-0.026,0.084l-0.028,0.091l-0.031,0.091l-0.028,0.084l-0.032,0.09l-0.033,0.089l-0.035,0.09l-0.033,0.082l-0.036,0.089l-0.035,0.082l-0.038,0.088l-0.041,0.088l-0.038,0.081l-0.042,0.087l-0.043,0.086l-0.045,0.086l-0.043,0.079l-0.043,0.079l-0.047,0.085l-0.049,0.084l-0.05,0.083l-0.052,0.084l-0.049,0.076l-0.049,0.077l-0.055,0.081l-0.055,0.081l-0.057,0.081l-0.054,0.074l-0.058,0.079l-0.061,0.078l-0.057,0.073l-0.062,0.078l-0.06,0.072l-0.063,0.075l-0.066,0.076l-0.067,0.074l-0.067,0.074l-0.065,0.068l-0.066,0.069l-0.065,0.067l-19.562,19.561l-0.068,0.067l-0.072,0.07l-0.07,0.065l-0.07,0.065l-0.074,0.066l-0.076,0.066l-0.073,0.061l-0.076,0.063l-0.075,0.06l-0.074,0.059l-0.079,0.06l-0.076,0.056l-0.077,0.056l-0.081,0.058l-0.081,0.056l-0.079,0.052l-0.076,0.049l-0.079,0.051l-0.085,0.052l-0.084,0.05l-0.082,0.048l-0.079,0.044l-0.083,0.046l-0.086,0.046l-0.084,0.043l-0.081,0.041l-0.085,0.041l-0.088,0.042l-0.083,0.037l-0.086,0.039l-0.089,0.038l-0.084,0.034l-0.085,0.034l-0.088,0.034l-0.09,0.033l-0.088,0.032l-0.088,0.03l-0.086,0.028l-0.089,0.028l-0.09,0.027l-0.087,0.026l-0.091,0.025l-0.091,0.024l-0.088,0.021l-0.088,0.022l-0.092,0.02l-0.092,0.02l-0.09,0.018l-0.09,0.016l-0.091,0.016l-0.09,0.015l-0.091,0.014l-0.092,0.012l-0.091,0.012l-0.092,0.01l-0.091,0.01l-0.092,0.008l-0.092,0.007l-0.091,0.006l-0.092,0.005l-0.092,0.004l-0.092,0.002l-0.091,0.002l-0.092,0.001l-0.093,-0.001l-0.09,-0.002l-0.092,-0.002l-0.092,-0.004l-0.093,-0.005l-0.091,-0.006l-0.092,-0.007l-0.092,-0.008l-0.091,-0.01l-0.092,-0.01l-0.09,-0.012l-0.091,-0.012l-0.093,-0.014l-0.091,-0.015l-0.09,-0.016l-0.09,-0.016l-0.09,-0.018l-0.092,-0.02l-0.091,-0.02l-0.089,-0.022l-0.088,-0.021l-0.091,-0.024l-0.091,-0.025l-0.086,-0.026l-0.089,-0.026l-0.089,-0.028l-0.091,-0.03l-0.087,-0.03l-0.086,-0.031l-0.09,-0.033l-0.085,-0.033l-0.088,-0.035l-0.086,-0.035l-0.084,-0.036l-0.09,-0.04l-0.085,-0.039l-0.082,-0.038l-0.086,-0.042l-0.087,-0.043l-0.082,-0.043l-0.081,-0.043l-0.084,-0.046l-0.085,-0.048l-0.081,-0.048l-0.081,-0.048l-0.081,-0.05l-0.08,-0.051l-0.083,-0.053l-0.078,-0.053l-0.078,-0.053l-0.081,-0.058l-0.077,-0.056l-0.076,-0.056l-0.078,-0.06l-0.075,-0.059l-0.075,-0.06l-0.076,-0.063l-0.073,-0.061l-0.075,-0.066l-0.074,-0.066l-0.067,-0.062l-0.074,-0.068l-0.076,-0.073l-0.064,-0.064l-19.562,-19.561l-0.062,-0.064l-0.07,-0.072l-0.067,-0.072l-0.064,-0.07l-0.067,-0.074l-0.066,-0.076l-0.063,-0.075l-0.06,-0.072l-0.058,-0.073l-0.062,-0.078l-0.063,-0.083l-0.054,-0.074l-0.055,-0.074l-0.057,-0.081l-0.055,-0.081l-0.051,-0.076l-0.054,-0.082l-0.051,-0.082l-0.049,-0.078l-0.05,-0.083l-0.048,-0.084l-0.045,-0.079l-0.047,-0.085l-0.045,-0.085l-0.041,-0.08l-0.044,-0.086l-0.042,-0.087l-0.038,-0.081l-0.038,-0.082l-0.041,-0.094l-0.037,-0.088l-0.034,-0.083l-0.033,-0.082l-0.035,-0.09l-0.033,-0.089l-0.032,-0.09l-0.028,-0.084l-0.028,-0.084l-0.031,-0.098l-0.027,-0.091l-0.025,-0.084l-0.023,-0.085l-0.025,-0.092l-0.023,-0.092l-0.02,-0.086l-0.021,-0.092l-0.02,-0.093l-0.018,-0.093l-0.016,-0.086l-0.015,-0.086l-0.017,-0.101l-0.012,-0.086l-0.013,-0.086l-0.013,-0.102l-0.009,-0.086l-0.01,-0.094l-0.008,-0.094l-0.007,-0.087l-0.006,-0.094l-0.004,-0.087l-0.004,-0.095l-0.003,-0.094l-0.002,-0.087l0,-0.094l0,-0.095l0.002,-0.087l0.003,-0.094l0.004,-0.095l0.004,-0.086l0.006,-0.095l0.007,-0.086l0.008,-0.094l0.01,-0.094l0.009,-0.087l0.013,-0.102l0.013,-0.086l0.012,-0.086l0.017,-0.101l0.015,-0.086l0.016,-0.086l0.018,-0.092l0.02,-0.093l0.021,-0.093l0.02,-0.085l0.023,-0.092l0.025,-0.093l0.023,-0.084l0.024,-0.084l0.028,-0.092l0.031,-0.098l0.028,-0.084l0.028,-0.083l0.032,-0.09l0.033,-0.09l0.035,-0.09l0.033,-0.082l0.034,-0.082l0.037,-0.088l0.042,-0.095l0.037,-0.081l0.038,-0.081l0.042,-0.087l0.043,-0.086l0.042,-0.08l0.045,-0.086l0.047,-0.085l0.045,-0.079l0.049,-0.084l0.05,-0.083l0.048,-0.077l0.051,-0.083l0.054,-0.082l0.051,-0.076l0.055,-0.081l0.057,-0.08l0.054,-0.074l0.055,-0.075l0.063,-0.083l0.062,-0.078l0.058,-0.072l0.06,-0.072l0.064,-0.076l0.065,-0.075l0.066,-0.074l0.065,-0.07l0.067,-0.073l0.07,-0.072l0.062,-0.063l19.561,-19.561l0.065,-0.064l0.076,-0.073l0.074,-0.069l0.067,-0.061l0.074,-0.067l0.075,-0.065l0.072,-0.061l0.078,-0.064l0.074,-0.06l0.074,-0.058l0.079,-0.06l0.076,-0.057l0.077,-0.056l0.08,-0.057l0.078,-0.053l0.079,-0.053l0.083,-0.054l0.08,-0.051l0.081,-0.049l0.081,-0.049l0.081,-0.047l0.086,-0.049l0.083,-0.045l0.08,-0.043l0.083,-0.043l0.087,-0.044l0.086,-0.041l0.083,-0.039l0.085,-0.039l0.088,-0.039l0.085,-0.036l0.087,-0.036l0.086,-0.035l0.085,-0.032l0.091,-0.034l0.087,-0.031l0.086,-0.029l0.091,-0.03l0.089,-0.028l0.088,-0.027l0.088,-0.025l0.09,-0.025l0.09,-0.024l0.09,-0.022l0.089,-0.021l0.09,-0.021l0.091,-0.019l0.09,-0.018l0.091,-0.017l0.09,-0.016l0.092,-0.015l0.092,-0.014l0.09,-0.012l0.091,-0.012l0.092,-0.01l0.091,-0.009l0.092,-0.008l0.093,-0.008l0.091,-0.006l0.092,-0.004l0.091,-0.004l0.092,-0.003l0.092,-0.002l0.092,0l0.092,0Zm-0.164,1.744l-0.071,0.002l-0.071,0.002l-0.071,0.003l-0.071,0.004l-0.071,0.004l-0.071,0.006l-0.071,0.006l-0.07,0.007l-0.071,0.008l-0.071,0.009l-0.07,0.01l-0.071,0.011l-0.07,0.011l-0.07,0.012l-0.07,0.013l-0.07,0.014l-0.07,0.015l-0.07,0.016l-0.069,0.016l-0.07,0.018l-0.069,0.018l-0.069,0.019l-0.069,0.02l-0.069,0.021l-0.068,0.021l-0.068,0.023l-0.068,0.023l-0.068,0.024l-0.067,0.025l-0.068,0.026l-0.067,0.027l-0.066,0.027l-0.067,0.028l-0.066,0.03l-0.066,0.03l-0.066,0.031l-0.065,0.031l-0.065,0.033l-0.065,0.033l-0.064,0.035l-0.064,0.035l-0.064,0.036l-0.063,0.037l-0.063,0.037l-0.062,0.039l-0.062,0.039l-0.062,0.041l-0.062,0.041l-0.061,0.042l-0.06,0.042l-0.06,0.044l-0.06,0.044l-0.059,0.046l-0.059,0.046l-0.059,0.047l-0.058,0.048l-0.057,0.048l-0.057,0.05l-0.057,0.05l-0.056,0.052l-0.055,0.052l-0.055,0.053l-0.054,0.053l-19.554,19.554l-0.054,0.054l-0.053,0.055l-0.052,0.056l-0.051,0.056l-0.05,0.056l-0.05,0.057l-0.048,0.058l-0.048,0.058l-0.047,0.058l-0.046,0.059l-0.046,0.059l-0.044,0.06l-0.044,0.06l-0.043,0.061l-0.042,0.06l-0.041,0.062l-0.04,0.062l-0.039,0.062l-0.039,0.062l-0.037,0.063l-0.037,0.064l-0.036,0.063l-0.035,0.064l-0.035,0.065l-0.033,0.064l-0.033,0.065l-0.032,0.066l-0.03,0.065l-0.03,0.066l-0.03,0.066l-0.028,0.067l-0.028,0.066l-0.026,0.067l-0.026,0.068l-0.025,0.067l-0.024,0.068l-0.024,0.068l-0.022,0.068l-0.022,0.069l-0.02,0.068l-0.02,0.069l-0.019,0.069l-0.018,0.069l-0.018,0.07l-0.016,0.069l-0.016,0.07l-0.015,0.07l-0.014,0.07l-0.013,0.07l-0.012,0.07l-0.012,0.07l-0.01,0.071l-0.01,0.07l-0.009,0.071l-0.008,0.071l-0.007,0.071l-0.006,0.07l-0.006,0.071l-0.005,0.071l-0.003,0.071l-0.003,0.071l-0.002,0.072l-0.002,0.071l0,0.071l0,0.071l0.002,0.071l0.002,0.071l0.003,0.071l0.003,0.071l0.005,0.071l0.006,0.071l0.006,0.071l0.007,0.071l0.008,0.07l0.009,0.071l0.01,0.071l0.01,0.07l0.012,0.07l0.012,0.071l0.013,0.07l0.014,0.07l0.015,0.07l0.016,0.069l0.016,0.07l0.018,0.069l0.018,0.069l0.019,0.069l0.02,0.069l0.02,0.069l0.022,0.068l0.022,0.068l0.024,0.068l0.024,0.068l0.025,0.068l0.026,0.067l0.026,0.067l0.028,0.067l0.028,0.066l0.03,0.066l0.03,0.066l0.03,0.066l0.032,0.065l0.033,0.065l0.033,0.065l0.035,0.064l0.035,0.064l0.036,0.064l0.037,0.063l0.037,0.063l0.039,0.063l0.039,0.062l0.04,0.062l0.041,0.061l0.042,0.061l0.043,0.061l0.044,0.06l0.044,0.059l0.046,0.06l0.046,0.059l0.047,0.058l0.048,0.058l0.048,0.057l0.05,0.057l0.05,0.057l0.051,0.056l0.052,0.055l0.053,0.055l0.054,0.055l19.554,19.553l0.054,0.054l0.055,0.053l0.055,0.052l0.056,0.051l0.057,0.05l0.057,0.05l0.057,0.049l0.058,0.048l0.059,0.047l0.059,0.046l0.059,0.045l0.06,0.045l0.06,0.043l0.06,0.043l0.061,0.042l0.062,0.041l0.062,0.04l0.062,0.039l0.062,0.039l0.063,0.038l0.063,0.037l0.064,0.036l0.064,0.035l0.064,0.034l0.065,0.033l0.065,0.033l0.065,0.032l0.066,0.031l0.066,0.03l0.066,0.029l0.067,0.028l0.066,0.028l0.067,0.027l0.068,0.025l0.067,0.025l0.068,0.025l0.068,0.023l0.068,0.022l0.068,0.022l0.069,0.021l0.069,0.019l0.069,0.02l0.069,0.018l0.07,0.017l0.069,0.017l0.07,0.015l0.07,0.015l0.07,0.014l0.07,0.013l0.07,0.012l0.07,0.012l0.071,0.01l0.07,0.01l0.071,0.009l0.071,0.008l0.07,0.007l0.071,0.007l0.071,0.005l0.071,0.005l0.071,0.004l0.071,0.003l0.071,0.002l0.071,0.001l0.072,0l0.071,0l0.071,-0.001l0.071,-0.002l0.071,-0.003l0.071,-0.004l0.071,-0.005l0.071,-0.005l0.071,-0.007l0.07,-0.007l0.071,-0.008l0.071,-0.009l0.07,-0.01l0.071,-0.01l0.07,-0.012l0.07,-0.012l0.071,-0.013l0.07,-0.014l0.069,-0.015l0.07,-0.015l0.07,-0.017l0.069,-0.017l0.069,-0.018l0.069,-0.02l0.069,-0.019l0.069,-0.021l0.068,-0.022l0.068,-0.022l0.068,-0.023l0.068,-0.025l0.068,-0.025l0.067,-0.025l0.067,-0.027l0.067,-0.028l0.066,-0.028l0.066,-0.029l0.066,-0.03l0.066,-0.031l0.065,-0.032l0.065,-0.033l0.065,-0.033l0.064,-0.034l0.064,-0.035l0.064,-0.036l0.063,-0.037l0.063,-0.038l0.062,-0.039l0.063,-0.039l0.061,-0.04l0.062,-0.041l0.061,-0.042l0.06,-0.043l0.061,-0.043l0.059,-0.045l0.06,-0.045l0.058,-0.046l0.059,-0.047l0.058,-0.048l0.057,-0.049l0.057,-0.05l0.057,-0.05l0.056,-0.051l0.055,-0.052l0.055,-0.053l0.055,-0.054l19.553,-19.553l0.054,-0.055l0.053,-0.055l0.052,-0.055l0.051,-0.056l0.05,-0.057l0.05,-0.057l0.049,-0.057l0.047,-0.058l0.047,-0.058l0.047,-0.059l0.045,-0.06l0.044,-0.059l0.044,-0.06l0.043,-0.061l0.042,-0.061l0.041,-0.061l0.04,-0.062l0.039,-0.062l0.039,-0.063l0.038,-0.063l0.036,-0.063l0.036,-0.064l0.036,-0.064l0.034,-0.064l0.033,-0.065l0.033,-0.065l0.032,-0.065l0.031,-0.066l0.03,-0.066l0.029,-0.066l0.028,-0.066l0.028,-0.067l0.026,-0.067l0.026,-0.067l0.025,-0.068l0.024,-0.068l0.024,-0.068l0.022,-0.068l0.022,-0.068l0.02,-0.069l0.02,-0.069l0.019,-0.069l0.019,-0.069l0.017,-0.069l0.016,-0.07l0.016,-0.069l0.015,-0.07l0.014,-0.07l0.013,-0.07l0.012,-0.071l0.012,-0.07l0.01,-0.07l0.01,-0.071l0.009,-0.071l0.008,-0.07l0.007,-0.071l0.007,-0.071l0.005,-0.071l0.005,-0.071l0.004,-0.071l0.003,-0.071l0.002,-0.071l0.001,-0.071l0,-0.071l0,-0.071l-0.001,-0.071l-0.002,-0.072l-0.003,-0.071l-0.004,-0.071l-0.005,-0.071l-0.005,-0.071l-0.007,-0.07l-0.007,-0.071l-0.008,-0.071l-0.009,-0.071l-0.01,-0.07l-0.01,-0.071l-0.012,-0.07l-0.012,-0.07l-0.013,-0.07l-0.014,-0.07l-0.015,-0.07l-0.016,-0.07l-0.016,-0.069l-0.017,-0.07l-0.019,-0.069l-0.019,-0.069l-0.02,-0.069l-0.02,-0.068l-0.022,-0.069l-0.022,-0.068l-0.024,-0.068l-0.024,-0.068l-0.025,-0.067l-0.026,-0.068l-0.026,-0.067l-0.028,-0.066l-0.028,-0.067l-0.029,-0.066l-0.03,-0.066l-0.031,-0.065l-0.032,-0.066l-0.033,-0.065l-0.033,-0.064l-0.034,-0.065l-0.036,-0.064l-0.036,-0.063l-0.036,-0.064l-0.038,-0.063l-0.039,-0.062l-0.039,-0.062l-0.04,-0.062l-0.041,-0.062l-0.042,-0.06l-0.043,-0.061l-0.044,-0.06l-0.044,-0.06l-0.045,-0.059l-0.047,-0.059l-0.047,-0.058l-0.047,-0.058l-0.049,-0.058l-0.05,-0.057l-0.05,-0.056l-0.051,-0.056l-0.052,-0.056l-0.053,-0.055l-0.054,-0.054l-19.553,-19.554l-0.055,-0.053l-0.055,-0.053l-0.055,-0.052l-0.056,-0.052l-0.057,-0.05l-0.057,-0.05l-0.057,-0.048l-0.058,-0.048l-0.059,-0.047l-0.058,-0.046l-0.06,-0.046l-0.059,-0.044l-0.061,-0.044l-0.06,-0.042l-0.061,-0.042l-0.062,-0.041l-0.061,-0.041l-0.063,-0.039l-0.062,-0.039l-0.063,-0.037l-0.063,-0.037l-0.064,-0.036l-0.064,-0.035l-0.064,-0.035l-0.065,-0.033l-0.065,-0.033l-0.065,-0.031l-0.066,-0.031l-0.066,-0.03l-0.066,-0.03l-0.066,-0.028l-0.067,-0.027l-0.067,-0.027l-0.067,-0.026l-0.068,-0.025l-0.068,-0.024l-0.068,-0.023l-0.068,-0.023l-0.068,-0.021l-0.069,-0.021l-0.069,-0.02l-0.069,-0.019l-0.069,-0.018l-0.069,-0.018l-0.07,-0.016l-0.07,-0.016l-0.069,-0.015l-0.07,-0.014l-0.071,-0.013l-0.07,-0.012l-0.07,-0.011l-0.071,-0.011l-0.07,-0.01l-0.071,-0.009l-0.071,-0.008l-0.07,-0.007l-0.071,-0.006l-0.071,-0.006l-0.071,-0.004l-0.071,-0.004l-0.071,-0.003l-0.071,-0.002l-0.071,-0.002l-0.071,0l-0.072,0Z" style="fill:#ee287c;"/><path d="M40.977,20.818c-0.069,0.224 -0.531,0.562 -1.386,1.013c-0.231,0.141 -0.561,0.334 -0.987,0.578c-0.428,0.244 -0.815,0.469 -1.162,0.675c-0.348,0.205 -0.674,0.404 -0.979,0.596c-0.048,0.038 -0.2,0.149 -0.456,0.334c-0.255,0.185 -0.471,0.323 -0.649,0.413c-0.177,0.09 -0.352,0.138 -0.525,0.141c-0.247,0.006 -0.559,-0.163 -0.937,-0.507c-0.378,-0.344 -0.727,-0.719 -1.044,-1.126c-0.318,-0.407 -0.654,-0.782 -1.007,-1.127c-0.354,-0.344 -0.642,-0.514 -0.864,-0.509c-0.112,0.003 -0.25,0.037 -0.415,0.102c-0.165,0.065 -0.291,0.121 -0.377,0.165c-0.085,0.046 -0.231,0.135 -0.438,0.27c-0.208,0.135 -0.323,0.208 -0.348,0.221c-1.671,0.976 -3.098,2.083 -4.281,3.32c-1.183,1.237 -2.226,2.712 -3.127,4.425c-0.012,0.025 -0.08,0.144 -0.205,0.356c-0.125,0.213 -0.208,0.363 -0.25,0.451c-0.041,0.087 -0.091,0.215 -0.149,0.383c-0.057,0.168 -0.085,0.308 -0.083,0.419c0.005,0.222 0.187,0.502 0.547,0.84c0.36,0.338 0.75,0.657 1.17,0.957c0.421,0.299 0.811,0.63 1.171,0.993c0.361,0.362 0.543,0.667 0.549,0.914c0.004,0.173 -0.036,0.35 -0.118,0.531c-0.082,0.181 -0.21,0.403 -0.384,0.666c-0.173,0.264 -0.278,0.42 -0.314,0.471c-0.178,0.312 -0.362,0.647 -0.552,1.003c-0.19,0.357 -0.397,0.754 -0.622,1.191c-0.225,0.437 -0.403,0.775 -0.534,1.013c-0.413,0.874 -0.729,1.35 -0.95,1.429c-0.086,0.039 -0.215,0.061 -0.388,0.064c-0.333,0.008 -0.77,-0.044 -1.31,-0.156c-0.54,-0.111 -0.966,-0.232 -1.278,-0.361c-0.623,-0.245 -1.294,-0.984 -2.013,-2.216c-0.656,-1.146 -0.996,-2.288 -1.022,-3.424c-0.007,-0.333 0.008,-0.658 0.044,-0.974c0.036,-0.316 0.105,-0.673 0.208,-1.071c0.102,-0.397 0.185,-0.693 0.249,-0.885c0.063,-0.193 0.182,-0.539 0.357,-1.037c0.174,-0.498 0.278,-0.803 0.313,-0.915c0.405,-1.22 0.894,-2.312 1.465,-3.276c0.94,-1.602 2.235,-3.265 3.883,-4.988c1.648,-1.723 3.252,-3.09 4.811,-4.101c0.938,-0.614 2.007,-1.15 3.208,-1.61c0.11,-0.039 0.41,-0.157 0.9,-0.353c0.49,-0.196 0.83,-0.331 1.02,-0.403c0.189,-0.072 0.481,-0.168 0.873,-0.288c0.394,-0.12 0.747,-0.205 1.061,-0.256c0.314,-0.05 0.637,-0.079 0.971,-0.086c1.136,-0.025 2.291,0.264 3.466,0.868c1.263,0.664 2.03,1.302 2.303,1.914c0.144,0.305 0.282,0.725 0.417,1.26c0.136,0.534 0.207,0.968 0.215,1.302c0.004,0.173 -0.012,0.303 -0.047,0.391Z" style="fill:#ee287c;fill-rule:nonzero;"/></g></svg>