<?xml version="1.0" encoding="UTF-8" standalone="no"?><!DOCTYPE svg PUBLIC "-//W3C//DTD SVG 1.1//EN" "http://www.w3.org/Graphics/SVG/1.1/DTD/svg11.dtd"><svg width="100%" height="100%" viewBox="0 0 40 39" version="1.1" xmlns="http://www.w3.org/2000/svg" xmlns:xlink="http://www.w3.org/1999/xlink" xml:space="preserve" xmlns:serif="http://www.serif.com/" style="fill-rule:evenodd;clip-rule:evenodd;stroke-linejoin:round;stroke-miterlimit:2;"><rect id="Artboard4" x="6.141" y="6.018" width="26.468" height="27" style="fill:none;"/><path d="M32.348,11.927c-0.069,0.224 -0.531,0.561 -1.386,1.012c-0.231,0.142 -0.561,0.334 -0.987,0.578c-0.427,0.245 -0.815,0.47 -1.162,0.675c-0.348,0.205 -0.674,0.404 -0.979,0.596c-0.048,0.038 -0.2,0.15 -0.456,0.335c-0.255,0.184 -0.471,0.322 -0.649,0.413c-0.177,0.09 -0.352,0.137 -0.525,0.141c-0.247,0.005 -0.559,-0.164 -0.937,-0.507c-0.378,-0.344 -0.727,-0.719 -1.044,-1.127c-0.318,-0.407 -0.654,-0.782 -1.007,-1.126c-0.354,-0.345 -0.642,-0.514 -0.864,-0.509c-0.112,0.002 -0.25,0.036 -0.415,0.101c-0.165,0.066 -0.291,0.121 -0.377,0.166c-0.085,0.045 -0.231,0.135 -0.438,0.27c-0.208,0.134 -0.323,0.208 -0.348,0.221c-1.671,0.976 -3.098,2.083 -4.281,3.319c-1.183,1.238 -2.226,2.712 -3.127,4.425c-0.012,0.025 -0.08,0.144 -0.205,0.357c-0.125,0.213 -0.208,0.363 -0.25,0.45c-0.041,0.088 -0.091,0.216 -0.149,0.384c-0.057,0.168 -0.085,0.307 -0.083,0.418c0.005,0.223 0.187,0.503 0.547,0.841c0.36,0.338 0.75,0.657 1.17,0.956c0.421,0.299 0.811,0.631 1.171,0.993c0.361,0.363 0.543,0.668 0.549,0.914c0.004,0.173 -0.036,0.35 -0.118,0.531c-0.082,0.182 -0.21,0.403 -0.384,0.667c-0.173,0.263 -0.278,0.42 -0.314,0.47c-0.178,0.313 -0.362,0.647 -0.552,1.004c-0.19,0.356 -0.397,0.753 -0.622,1.191c-0.225,0.437 -0.403,0.775 -0.534,1.012c-0.413,0.874 -0.729,1.351 -0.95,1.43c-0.086,0.039 -0.215,0.06 -0.388,0.064c-0.333,0.007 -0.77,-0.045 -1.31,-0.156c-0.54,-0.112 -0.966,-0.232 -1.278,-0.361c-0.623,-0.246 -1.294,-0.984 -2.013,-2.216c-0.656,-1.147 -0.996,-2.289 -1.021,-3.425c-0.008,-0.333 0.007,-0.658 0.043,-0.974c0.036,-0.315 0.105,-0.672 0.208,-1.07c0.102,-0.398 0.185,-0.693 0.249,-0.886c0.063,-0.193 0.182,-0.538 0.357,-1.036c0.174,-0.498 0.278,-0.803 0.313,-0.915c0.405,-1.22 0.894,-2.312 1.465,-3.276c0.94,-1.603 2.235,-3.266 3.883,-4.989c1.648,-1.723 3.252,-3.09 4.811,-4.101c0.938,-0.613 2.007,-1.15 3.208,-1.609c0.11,-0.039 0.41,-0.157 0.9,-0.354c0.49,-0.196 0.83,-0.33 1.02,-0.402c0.19,-0.073 0.481,-0.169 0.873,-0.289c0.394,-0.12 0.747,-0.205 1.061,-0.255c0.314,-0.05 0.637,-0.079 0.971,-0.087c1.136,-0.025 2.291,0.265 3.466,0.869c1.263,0.663 2.03,1.301 2.303,1.913c0.144,0.306 0.282,0.726 0.417,1.261c0.136,0.534 0.207,0.968 0.215,1.301c0.004,0.174 -0.012,0.304 -0.047,0.392Z" style="fill:#ee287c;fill-rule:nonzero;"/><rect id="Artboard6" x="0" y="0" width="39.029" height="38.905" style="fill:none;"/></svg>